<?xml version="1.0" encoding="UTF-8"?>
<!DOCTYPE svg PUBLIC "-//W3C//DTD SVG 1.1//EN" "http://www.w3.org/Graphics/SVG/1.1/DTD/svg11.dtd">
<!-- Creator: CorelDRAW 2019 (64-Bit) -->
<svg xmlns="http://www.w3.org/2000/svg" xml:space="preserve" width="210mm" height="297mm" version="1.1" style="shape-rendering:geometricPrecision; text-rendering:geometricPrecision; image-rendering:optimizeQuality; fill-rule:evenodd; clip-rule:evenodd"
viewBox="0 0 21000 29700"
 xmlns:xlink="http://www.w3.org/1999/xlink"
 xmlns:xodm="http://www.corel.com/coreldraw/odm/2003">
 <defs>
  <style type="text/css">
   <![CDATA[
    .fil0 {fill:black}
   ]]>
  </style>
 </defs>
 <g id="Слой_x0020_1">
  <metadata id="CorelCorpID_0Corel-Layer"/>
  <g id="_1321067859824">
   <path class="fil0" d="M12880.59 6635.86l-5072.13 8444.98 5072.41 2154.39 4962.52 -2172.3 -4962.8 -8427.07zm-1588.16 6626.19c2.31,-761.05 130.02,-1293.25 383.11,-1596.52 253.12,-303.31 637.86,-454.19 1153.43,-452.64 247.87,0.75 451.96,34.94 610.44,101.65 159.4,66.7 288.63,153.82 388.69,260.44 100.89,106.63 179.49,218.78 236.6,336.51 57.99,117.65 103.88,254.92 138.59,411.69 67.73,298.65 101.13,610.28 100.13,934.85 -2.19,726.54 -117.01,1257.78 -344.5,1593.81 -226.62,336.03 -616.58,503.66 -1169.87,501.99 -309.68,-0.96 -559.98,-55.76 -750.94,-163.62 -191,-107.81 -346.65,-265.9 -468.68,-474.25 -87.91,-147.61 -156.81,-349.28 -205.76,-604.99 -48.16,-256.63 -72.16,-539.28 -71.24,-848.92zm1013.97 4.89c-1.55,509.24 38.57,858.16 121.23,1044.94 82.66,186.82 202.46,280.43 360.26,280.9 103.84,0.28 193.99,-38.6 270.6,-117.64 76.58,-79.05 132.73,-204.77 169.27,-375.35 36.54,-171.5 55.36,-438.2 56.47,-800.05 1.6,-531.65 -38.52,-888.97 -121.18,-1072.92 -82.71,-183.08 -206.76,-274.85 -372.33,-275.33 -169.86,-0.52 -291.97,92.37 -367.99,278.67 -76.05,186.31 -114.82,532.2 -116.33,1036.78z"/>
   <path class="fil0" d="M7322.74 14997.39l4572.21 -7612.82 -6835.88 6747.65 866.71 1993.44 1396.96 -1128.27zm573.08 -2117.38c16.35,63.24 18.3,120.08 5.85,169.67 -16.76,67.89 -52.82,131.06 -108.34,189.32 -91.38,95.88 -203.85,141.25 -337.26,136.04 -103.2,-5.18 -203.21,-50.27 -299.65,-135.56 -127.79,-112.99 -194.26,-225.42 -199.63,-337.98 -5.61,-112.31 34.22,-212.96 118.52,-301.44 49.39,-51.82 107.46,-89.11 174.68,-112.39 50.31,-17.08 109.81,-24.08 178.9,-20.54 -23.28,-75.26 -24.28,-149.01 -3.03,-220.29 21.3,-71.76 60.38,-137.23 117.13,-196.81 54.77,-57.43 116.58,-101.25 186.19,-131.77 69.65,-30.49 133.21,-45.22 190.68,-44.06 57.98,1.03 116.65,16.43 176.19,45.45 59.78,29.25 116.57,67.62 170.58,115.38 101.13,89.43 164.49,172.05 190.84,248.03 25.79,76.01 26.03,153.98 0.55,234.42 -25.43,80.39 -70.72,155.02 -136.47,223.99 -64.15,67.34 -131.5,112.63 -202.06,136.39 -70.56,23.76 -144.99,24.48 -223.67,2.15zm-334 119.76c37.69,-39.56 57.83,-80.84 60.3,-123.46 2.5,-42.59 -13.58,-79 -48.24,-109.65 -30.49,-26.94 -67.02,-37.09 -109.49,-30.37 -42.7,6.57 -82.07,28.9 -118.24,66.87 -37.93,39.8 -58.23,80.95 -61.49,123.85 -3.03,43.15 11.5,78.61 43.3,106.71 32.23,28.53 70.12,39.88 113.51,33.43 43.42,-6.45 83.69,-28.94 120.35,-67.38zm485.27 -480.86c48.4,-50.78 74.71,-103.28 79.96,-158.24 5.02,-54.65 -9.03,-96.64 -41.95,-125.73 -31.76,-28.1 -75.77,-36.93 -131.93,-26.55 -56.16,10.39 -108.34,40.64 -156.18,90.83 -48.39,50.78 -75.22,103.4 -80.67,158.12 -5.25,54.92 8.56,97.19 41.87,126.68 33.11,29.25 76.81,38.85 131.02,29.21 54.49,-9.47 107.18,-41.11 157.88,-94.32z"/>
   <path class="fil0" d="M13907.73 7475.59l4435.62 7531.39 1237.33 1202.82 791.93 -2007.77 -6464.88 -6726.44zm3970.96 4991.94l-414.31 367.15 -260.05 -283.97 -270.28 -1114.79 198 -175.43 699.72 764.11 103.04 -91.3 244.93 267.49 -103.05 91.3 213.13 232.71 -198 175.44 -213.13 -232.71zm-244.88 -267.45l-359.43 -392.51 140.61 586.37 218.82 -193.86z"/>
   <path class="fil0" d="M18128.95 15439.6l-5037.38 2204.85 -44.9 4318.37 6283.11 -5355.9 -1200.83 -1167.32zm-1632.65 3065.6l-922.96 605.39 -190.48 -274.74c15.72,-145.71 12.74,-290.58 -8.63,-434.73 -26.35,-174.68 -76.62,-354.97 -151,-541.75 -57.04,-145.59 -140.18,-307.77 -248.99,-486.39l314.54 -206.28c140.77,255.31 240.82,481.25 299.89,678.1 59.06,196.89 94.92,425.3 107.57,685.27l561.82 -368.54 238.24 343.67z"/>
   <path class="fil0" d="M12587.54 21960.87l45.06 -4331.58 -5136.13 -2181.49 -1297.78 1048.2 6388.85 5464.87zm-2691.12 -3752.06l404.96 203.61c-76.18,125.53 -175.12,209.59 -298.02,252.21 -122.46,42.39 -276.21,36.18 -460.88,-18.82 -212.33,-63.28 -353.78,-148.34 -424.94,-255.79 -70.8,-107.38 -88.51,-221.21 -52.81,-341.05 20.89,-70.12 59.22,-128.07 114.46,-173.52 55.24,-45.49 127.8,-78.37 217.9,-98.19 -58.3,-34.3 -101.05,-66.82 -127.79,-97.47 -44.3,-49.55 -72.91,-105.94 -86.72,-169.1 -13.7,-63.52 -9.56,-132.9 12.93,-208.32 28.22,-94.8 80.04,-178.46 155.66,-250.85 75.54,-72.04 166.84,-117.93 274.1,-137.15 107.29,-19.22 236.72,-6.25 388.76,39.04 147.89,44.06 259.49,96.32 334.43,156.61 75.26,60.42 130.27,132.1 165.65,215.68 34.98,83.54 52.25,180.69 51.54,291.13l-470.63 -74.58c9.35,-96.68 1.07,-168.51 -25.95,-214.96 -26.71,-46.33 -68.77,-78.29 -126.76,-95.56 -60.34,-17.95 -117.41,-10.59 -171.18,21.69 -53.41,32.4 -91.14,85.53 -113.27,159.84 -22.49,75.46 -20.54,139.61 5.73,192.82 26.35,52.9 72.84,89.39 139.18,109.17 35.3,10.51 86.76,16.4 153.87,17l-119.84 316.41c-23.52,-11.19 -42.31,-18.79 -56.32,-22.97 -58.38,-17.43 -112.95,-13.01 -163.17,12.86 -50.27,25.91 -83.19,64.39 -98.55,115.97 -14.8,49.67 -11.74,93.49 8.72,131.38 20.81,38.41 56.95,65.27 108.13,80.51 53.1,15.81 100.66,12.66 143.64,-9.63 42.51,-22.01 81.55,-71.48 117.17,-147.97z"/>
  </g>
 </g>
</svg>
