<?xml version="1.0" encoding="UTF-8"?>
<!DOCTYPE svg PUBLIC "-//W3C//DTD SVG 1.1//EN" "http://www.w3.org/Graphics/SVG/1.1/DTD/svg11.dtd">
<!-- Creator: CorelDRAW 2019 (64-Bit) -->
<svg xmlns="http://www.w3.org/2000/svg" xml:space="preserve" width="210mm" height="297mm" version="1.1" style="shape-rendering:geometricPrecision; text-rendering:geometricPrecision; image-rendering:optimizeQuality; fill-rule:evenodd; clip-rule:evenodd"
viewBox="0 0 21000 29700"
 xmlns:xlink="http://www.w3.org/1999/xlink"
 xmlns:xodm="http://www.corel.com/coreldraw/odm/2003">
 <defs>
  <style type="text/css">
   <![CDATA[
    .fil0 {fill:black}
   ]]>
  </style>
 </defs>
 <g id="Слой_x0020_1">
  <metadata id="CorelCorpID_0Corel-Layer"/>
  <g id="_1321535675056">
   <path class="fil0" d="M6593.12 8384.92l-2589.48 3624.42 2599.27 964.82 4215.45 -3125.77 113.58 -2836.47 -4338.82 1373zm516.04 1431.47l-502.31 252.45c-68.53,-168.67 -79.04,-329.3 -30.53,-483.21 48.44,-153.27 168.36,-301.76 359.71,-444.88 220.09,-164.53 409.38,-242.34 569.06,-233.7 159.23,8.99 285.64,75.58 378.53,199.75 54.37,72.72 83.66,153.71 88.08,242.34 4.33,88.64 -16.6,185.15 -63.56,289.5 77.29,-32.67 141.32,-51.1 191.63,-55.04 82.07,-7.44 159.36,5.81 232.43,38.81 73.35,33.35 139.3,88.79 197.8,167 73.43,98.26 118.45,211.65 134.53,340.52 15.84,128.47 -6.05,253.28 -66.27,374.31 -60.22,120.96 -168.95,240.27 -326.52,358.08 -153.26,114.62 -287.79,187.06 -403.28,216.99 -115.82,30.25 -227.9,31.96 -337.27,5.33 -109.01,-26.94 -218.53,-81.71 -327.94,-164.09l422.47 -413.32c89.31,80.87 166.96,125.73 233.18,133.21 65.83,7.76 128.76,-10.51 188.89,-55.48 62.49,-46.73 97.43,-108.97 105.07,-186.42 7.33,-77.09 -17.75,-153.99 -75.3,-231 -58.46,-78.17 -123.77,-123.74 -196.17,-136.99 -72.12,-12.85 -142.88,6.37 -211.69,57.79 -36.54,27.34 -80.48,74.31 -130.7,140.65l-226.27 -353.42c28.46,-15.16 49.99,-28.18 64.52,-39.04 60.53,-45.25 96.51,-102.84 107.9,-171.98 11.38,-69.21 -2.55,-130.42 -42.51,-183.87 -38.53,-51.5 -84.37,-80.87 -137.27,-88.55 -53.57,-7.68 -107.1,8.39 -160.11,48.07 -55.04,41.12 -87.08,90.83 -96.67,150.09 -9.56,58.58 10.78,134.08 60.57,226.1z"/>
   <path class="fil0" d="M11047.8 10249.53l-4140.86 3070.41 1597.59 4847.11 5109.82 -5.74 1548.16 -4889.29 -4114.71 -3022.49zm-932.94 3013.34l0 2894.26 -799.09 0 0 -1893.7c-129.19,98.07 -254.44,176.91 -375.67,237.2 -121.27,60.3 -273.03,118.61 -455.23,173.61l0 -644.08c269.01,-87.44 478.39,-192.15 626.84,-314.05 149.05,-122.59 265.7,-273.67 349.84,-453.24l653.31 0zm3172.54 2894.26l-2373.45 0c27.19,-233.9 110.01,-454.55 247.84,-660.63 137.82,-206.72 396.24,-450.57 775.21,-731.48 231.91,-172.29 380.37,-302.83 445.96,-392.26 64.91,-89.47 97.38,-174.28 97.38,-254.44 0,-86.8 -31.79,-161.03 -96.07,-222.64 -64.28,-61.65 -145.11,-92.09 -242.5,-92.09 -100.73,0 -183.56,31.8 -247.83,95.39 -64.28,64.28 -107.34,176.24 -129.19,337.94l-791.14 -64.27c31.13,-223.32 88.12,-396.92 170.94,-522.13 82.83,-125.25 199.44,-220.65 349.84,-287.59 151.08,-66.91 359.79,-100.06 626.17,-100.06 278.28,0 494.31,31.8 649.37,95.44 154.38,62.92 276.28,160.35 364.4,291.53 88.79,131.86 133.21,278.95 133.21,441.97 0,172.93 -51.02,338.58 -152.43,496.94 -101.37,157.69 -286.24,331.29 -554.57,520.14 -159.04,110.01 -265.7,187.54 -319.39,231.24 -53.65,44.41 -116.61,101.4 -189.49,172.96l1235.74 0 0 644.04z"/>
   <path class="fil0" d="M11277.68 9848.47l4195.47 3081.99 2751.3 -950.45 -2557.91 -3678.99 -4274.83 -1297.66 -114.03 2845.11zm3012.23 -233.82c-46.65,-89.63 -70.09,-170.78 -70.13,-242.22 -0.43,-97.71 28.74,-189.61 87.88,-275.3 97.39,-141.05 243.53,-210.74 438.51,-209.06 151.2,2.86 312.23,62.92 482.77,180.65 225.98,155.97 363.05,313.81 411.73,474.49 48.95,160.23 27.94,305.85 -61.85,435.92 -52.62,76.26 -123.06,132.09 -211.86,168.27 -66.54,26.59 -150.04,39.2 -251.37,37.17 61.09,106.51 89.31,211.9 84.5,314.74 -4.7,103.48 -37.42,198.72 -97.91,286.36 -58.31,84.49 -131.78,149.84 -221.41,196.45 -89.66,46.64 -176.27,70.4 -259.85,71.32 -84.25,0.99 -174.68,-18.47 -271.39,-57.35 -97.15,-39.21 -193.27,-91.62 -288.75,-157.53 -178.82,-123.42 -300.52,-238.76 -366.23,-346.18 -64.99,-107.53 -93.69,-219.01 -86.13,-335.07 7.56,-116.01 46.05,-224.67 116.02,-326.04 68.33,-99.06 149.29,-166.8 242.74,-203.81 93.44,-37.05 200.82,-41.27 322.73,-12.81zm439.7 -185.63c-40.11,58.15 -54.2,118.09 -42.34,179.06 11.9,60.97 48.39,112.27 109.69,154.62 53.84,37.17 110.44,50.11 169.42,38.65 59.42,-11.23 108.18,-44.9 146.7,-100.74 40.4,-58.5 54.89,-118.16 43.94,-179.69 -11.3,-61.77 -45.17,-111.84 -101.41,-150.64 -56.99,-39.33 -115.93,-53.89 -176.39,-42.83 -60.45,11.07 -110.56,44.98 -149.61,101.57zm-527.22 708.35c-51.5,74.67 -70.48,150.92 -58.11,229.69 12.66,78.32 48.24,137.7 106.43,177.86 56.19,38.76 123.02,49.51 200.51,32.24 77.53,-17.28 141.96,-62.77 192.95,-136.63 51.54,-74.67 71.2,-151.04 59.18,-229.53 -12.38,-78.72 -47.68,-138.5 -106.63,-179.22 -58.58,-40.39 -125.24,-52.17 -200.23,-36.05 -75.34,15.84 -140.09,63.44 -194.1,141.64z"/>
   <path class="fil0" d="M15613.96 13367.58c-525.91,1660.52 -1050.39,3321.43 -1577.41,4981.63l1671.22 2193.47 2829.54 -3622.63 -169.46 -4503.8 -2753.89 951.33zm2137.31 2604.52l-437.43 1680.42 -388.49 -101.13c-93.6,-180.37 -204.56,-339.45 -332.72,-477.8 -155.7,-167.15 -338.61,-314.65 -549.63,-443.2 -163.58,-101.21 -364.64,-192.71 -602.72,-274.78l149.08 -572.64c326.08,133.29 591.07,277.92 794.84,434.42 203.73,156.53 408.74,373.52 614.9,651.12l266.26 -1022.89 485.91 126.48z"/>
   <path class="fil0" d="M13667.01 18621.32l-5280.64 5.77 -1507.77 2162.9 4157.86 1557.88 4294.65 -1542.51 -1664.1 -2184.04zm-3498.74 708.71l1926.9 0 0 278.79 -1926.9 0 0 -278.79zm1975.37 997.29l-680.33 55.29c-17.75,-61.26 -48.08,-104.96 -90.47,-129.99 -42.98,-25.39 -95.08,-38.09 -156.37,-38.09 -109.93,0 -195.26,35.86 -257.06,107.94 -44.66,53.41 -78.49,165.84 -100.82,337.62 81.91,-54.89 165.49,-94.84 251.97,-120.24 85.93,-25.79 185.55,-38.48 298.94,-38.48 220.45,0 406.59,51.18 558.35,153.15 151.75,102.32 227.29,231.55 227.29,387.68 0,106.43 -38.37,203.54 -115.62,291.34 -77.33,87.4 -183.87,153.86 -319.03,198.68 -135.12,44.81 -305.22,67.22 -510.19,67.22 -246.28,0 -443.25,-27.62 -592.18,-82.51 -148.89,-55.28 -267.97,-142.68 -356.72,-262.6 -88.79,-119.87 -133.45,-278.23 -133.45,-475.44 0,-289.46 93.37,-501.24 280.63,-636.08 186.66,-134.44 445.52,-201.7 777.05,-201.7 195.89,0 349.91,14.57 463.3,44.1 112.83,29.49 206.72,72.83 281.78,129.23 74.98,56.75 132.85,127.71 172.93,212.88zm-1259.85 716c0,87.04 33.75,155.02 100.77,204.29 66.98,49.31 148.89,73.95 245.12,73.95 91.03,0 166.01,-22.41 226.19,-66.83 60.09,-44.45 89.9,-111.32 89.9,-200.59 0,-89.63 -30.96,-158.36 -93.33,-205.8 -61.85,-47.44 -139.73,-71.32 -232.55,-71.32 -96.15,0 -176.35,23.16 -240.46,69.09 -63.6,45.93 -95.64,111.68 -95.64,197.21z"/>
   <path class="fil0" d="M8061.76 18290.15c-536.1,-1626.85 -1071.44,-3254.37 -1608.69,-4880.9l-2580.49 -957.77 -3.46 4509.36 2645.28 3548.81 1547.36 -2219.5zm-3600.3 -2659.65l1905.96 -628.55 173.52 526.23 -1247.08 411.29c92.66,63.8 171.82,129.11 237.81,195.85 66.06,66.78 137.42,154.02 213.2,262.08l-424.1 139.86c-116.06,-158.17 -230.44,-273.31 -342.95,-344.55 -113.11,-71.56 -237.93,-115.54 -374.48,-131.93l-141.88 -430.28zm441.65 1306.86l1905.96 -628.59 173.57 526.27 -1247.08 411.28c92.65,63.76 171.77,129.11 237.8,195.86 66.07,66.74 137.39,153.98 213.21,262.04l-424.15 139.89c-116.01,-158.16 -230.44,-273.3 -342.95,-344.58 -113.11,-71.52 -237.92,-115.54 -374.47,-131.94l-141.89 -430.23z"/>
  </g>
 </g>
</svg>
