<?xml version="1.0" encoding="UTF-8"?>
<!DOCTYPE svg PUBLIC "-//W3C//DTD SVG 1.1//EN" "http://www.w3.org/Graphics/SVG/1.1/DTD/svg11.dtd">
<!-- Creator: CorelDRAW 2019 (64-Bit) -->
<svg xmlns="http://www.w3.org/2000/svg" xml:space="preserve" width="210mm" height="297mm" version="1.1" style="shape-rendering:geometricPrecision; text-rendering:geometricPrecision; image-rendering:optimizeQuality; fill-rule:evenodd; clip-rule:evenodd"
viewBox="0 0 21000 29700"
 xmlns:xlink="http://www.w3.org/1999/xlink"
 xmlns:xodm="http://www.corel.com/coreldraw/odm/2003">
 <defs>
  <style type="text/css">
   <![CDATA[
    .fil0 {fill:black}
   ]]>
  </style>
 </defs>
 <g id="Слой_x0020_1">
  <metadata id="CorelCorpID_0Corel-Layer"/>
  <g id="_1321070235936">
   <path class="fil0" d="M4546.02 11632.4l-23.01 6803.49 1721.77 -962.43 -1698.76 -5841.06zm318.04 4696.06l696.29 -281.26 44.22 170.62 -455.59 184.03c30.73,18.03 56.64,37.1 77.85,57.12 21.21,20.05 43.58,46.76 66.94,80.31l-154.98 62.57c-35.9,-48.92 -72.67,-83.42 -110.2,-103.28 -37.73,-19.9 -80.56,-30.13 -128.4,-30.65l-36.13 -139.46zm520.85 -958.45l131.26 506.65c-57.79,16.95 -115.42,20.69 -172.61,11.26 -57.39,-9.27 -130.34,-40.79 -218.9,-94.36 -54.24,-32.8 -93.84,-51.78 -119.04,-57.12 -25.07,-5.13 -47.32,-3.86 -66.58,3.94 -20.9,8.44 -36.98,22.45 -48.28,42.15 -11.22,19.7 -14.09,39.96 -8.72,60.74 5.58,21.49 17.8,36.09 36.66,43.62 19.02,7.44 48.36,5.77 88.43,-5.26l28.34 175.16c-55.44,15.01 -100.37,19.7 -135.12,14.21 -34.66,-5.49 -64.07,-21.13 -88.51,-46.73 -24.44,-25.75 -43.98,-67.06 -58.71,-123.93 -15.4,-59.42 -19.66,-108.65 -12.97,-147.9 6.65,-39.08 23.32,-74.58 50.03,-106.1 26.78,-31.8 59.74,-55.56 98.94,-71.4 41.63,-16.8 84.25,-22.01 127.99,-15.76 43.55,6.29 95.56,28.93 155.82,67.86 35.22,23.24 59.78,38.48 73.31,45.69 13.61,7.16 30.81,15.08 52.06,23.64l-68.34 -263.75 154.94 -62.61z"/>
   <path class="fil0" d="M4718.67 10613.77l1859.27 6469.45c1463.03,-2634.25 2981.62,-5368.16 4444.34,-8002.57 -2074.95,518.51 -4228.86,1013.89 -6303.61,1533.12zm3850.68 1486.95l-888.12 1482.73c-135.96,-104.47 -242.78,-238.8 -319.95,-402.02 -77.61,-163.45 -133.21,-416.1 -166.92,-758.02 -20.82,-209.38 -46.85,-350.91 -78.21,-425.33 -31.56,-74.11 -72.39,-126.13 -122.5,-156.14 -54.21,-32.47 -112.47,-40.35 -175,-23.24 -62.56,17.07 -111.84,56.2 -148.29,117.05 -37.69,62.88 -48.8,126.56 -33.12,190.52 16.08,64.2 69.89,133.01 162.74,207.16l-336.18 470.23c-127.84,-103.04 -214.96,-203.62 -262.24,-302.2 -47.2,-98.62 -63.2,-207.2 -48.72,-326.2 14.73,-119.4 72.12,-262.2 171.78,-428.56 104.15,-173.88 204.85,-296.94 302.63,-370.01 97.04,-72.88 203.54,-112.6 318.48,-118.57 115.62,-6.09 224.11,21.18 325.96,82.19 108.01,64.67 192.43,158.56 253.4,281.14 60.58,122.39 99.86,302.8 117.41,541.08 9.23,140.53 17.71,236.17 24.99,286.08 7.65,50.14 19.67,110.8 37.14,183.11l462.39 -771.99 402.33 240.99z"/>
   <path class="fil0" d="M5316.42 10029.11c1922.55,-480.54 3958.62,-958.21 5885.31,-1439.23l72.24 -1883.31 -5957.55 3322.54zm4361.98 -1986.35l-175.75 640.77 -185.82 29.57 115.02 -419.25c-35.98,26.51 -69.89,48.56 -101.73,66.39 -31.88,17.87 -70.72,36.42 -116.41,55.32l39.12 -142.6c67.86,-29.33 122.9,-60.22 164.85,-92.73 42.07,-32.64 78.36,-70.45 108.85,-113.31l151.87 -24.16zm227.34 252.49c-24.84,-9.87 -41.43,-22.97 -49.59,-38.93 -11.26,-21.77 -12.58,-48.63 -3.82,-80.63 14.45,-52.66 52.38,-99.94 113.63,-141.81 47.72,-32.15 105.03,-53.65 171.89,-64.27 88.59,-14.09 149.53,-8.52 183.08,16.87 33.59,25.24 43.58,62.37 30.25,110.92 -7.8,28.46 -23.53,56.2 -47.21,83.54 -17.83,20.38 -42.54,41.28 -74.54,62.81 31.28,10.58 52.14,28.02 62.33,52.09 10.26,24.16 10.94,52.54 1.95,85.25 -8.64,31.53 -24.24,62.09 -47.05,91.94 -22.76,29.89 -47.2,53.97 -73.31,72.28 -26.27,18.46 -56.83,33.75 -91.58,46.01 -34.9,12.25 -71,21.41 -108.45,27.34 -70.05,11.18 -121.35,11.74 -154.18,1.95 -32.64,-9.95 -54.33,-28.62 -65.16,-56.24 -10.86,-27.58 -11.18,-60.22 -0.79,-98.06 10.15,-36.98 27.82,-69.69 52.89,-98.19 25.04,-28.54 58.23,-52.77 99.66,-72.87zm116.69 -136.83c-5.97,21.73 -3.58,38.16 7.09,49.23 10.66,11.1 27.94,14.64 52.01,10.82 21.1,-3.34 40.32,-12.73 57.47,-28.09 17.36,-15.37 28.78,-33.48 34.51,-54.29 5.97,-21.89 3.78,-38.37 -6.69,-49.71 -10.58,-11.38 -26.94,-15.24 -48.95,-11.74 -22.33,3.54 -42.46,13.05 -60.14,28.65 -17.71,15.61 -29.53,33.99 -35.3,55.13zm-84.57 272.74c-7.64,27.86 -4.9,49.04 7.96,63.96 12.89,14.77 30.76,20.34 53.61,16.72 22.01,-3.51 44.18,-15.61 66.5,-36.26 22.33,-20.7 37.33,-44.82 44.9,-72.4 7.64,-27.86 5.13,-49.19 -7.57,-64.15 -12.85,-14.93 -30.76,-20.62 -53.84,-16.96 -22.97,3.66 -45.22,15.48 -66.87,35.34 -21.81,19.86 -36.65,44.54 -44.69,73.75z"/>
   <path class="fil0" d="M11685.06 8561.55l5999.22 1427.41c-1876.59,-1076.7 -4095.37,-2239.32 -5975.14,-3316.42 -6.85,613.19 -16.48,1275.81 -24.08,1889.01zm1791.85 -17.2l-388.56 75.38 -119.04 -185.9 75.18 -564.88 185.7 -36.01 320.35 500.28 96.55 -18.71 112.12 175.08 -96.55 18.74 97.54 152.36 -185.7 36.02 -97.59 -152.36zm-112.07 -175.08l-164.58 -256.98 -40.63 296.78 205.21 -39.8z"/>
   <path class="fil0" d="M18499.01 10603.26c-639.69,-176.63 -5608.31,-1304.27 -6561.35,-1518.19l4425.27 8084.12c709.99,-2178.55 1426.78,-4387.18 2136.08,-6565.93zm-2270.8 780.15l-1678.82 881.08 -224.15 -427.16 1098.43 -576.46c-93.14,-39.24 -173.97,-82.19 -243.02,-128.63 -68.93,-46.45 -145.35,-109.81 -228.37,-190.44l373.6 -196.1c126.2,117.21 245.68,197.21 357.99,239.48 112.96,42.34 233.31,58.66 361.07,49.03l183.27 349.2zm-732.19 1697.49l-403.73 -769.24 377.07 -197.89 1396.44 248.27 192.95 367.63 -1014.65 532.52 100.37 191.27 -355.13 186.35 -100.37 -191.24 -309 162.18 -192.99 -367.67 309.04 -162.18zm355.13 -186.34l521.18 -273.54 -734.38 -132.69 213.2 406.23z"/>
   <path class="fil0" d="M15946.47 17270.68l-4481.35 -8162.21c-1426.81,2721.45 -3105.67,5421.49 -4458.22,8145.77l8939.57 16.44zm-4572.09 -1585.89l-1719.46 0c19.7,-189.77 79.68,-368.75 179.54,-535.95 99.86,-167.71 287.07,-365.51 561.61,-593.41 168.03,-139.77 275.57,-245.68 323.05,-318.23 47.09,-72.56 70.61,-141.37 70.61,-206.4 0,-70.45 -23.09,-130.63 -69.61,-180.65 -46.57,-49.99 -105.15,-74.71 -175.72,-74.71 -72.95,0 -132.93,25.79 -179.49,77.41 -46.61,52.14 -77.77,143 -93.61,274.14l-573.15 -52.14c22.52,-181.16 63.83,-321.97 123.81,-423.58 60.02,-101.57 144.47,-178.98 253.45,-233.31 109.48,-54.28 260.68,-81.15 453.67,-81.15 201.58,0 358.08,25.79 470.43,77.41 111.84,51.06 200.15,130.07 263.99,236.53 64.32,106.94 96.47,226.3 96.47,358.51 0,140.3 -36.93,274.7 -110.4,403.17 -73.43,127.92 -207.35,268.77 -401.78,421.96 -115.22,89.23 -192.47,152.11 -231.35,187.61 -38.88,36.02 -84.49,82.23 -137.31,140.3l895.25 0 0 522.49zm244.85 -1164.3c0,-438.63 70.56,-745.56 211.69,-920.8 141.13,-175.24 356.17,-262.88 644.68,-262.88 138.7,0 252.92,19.34 341.75,57.51 89.27,38.17 161.75,88.16 217.95,149.45 56.63,61.29 100.81,125.77 132.97,193.5 32.63,67.74 58.54,146.75 78.2,237.05 38.45,172.01 57.63,351.55 57.63,538.65 0,418.73 -63.36,725.11 -190.08,919.17 -126.24,194.06 -344.19,291.33 -653.83,291.33 -173.24,0 -313.42,-31.16 -420.48,-92.97 -107.06,-61.81 -194.42,-152.67 -263.03,-272.55 -49.48,-84.93 -88.36,-201.03 -116.18,-348.32 -27.38,-147.82 -41.27,-310.68 -41.27,-489.14zm567.38 1.07c0,293.49 23.04,494.51 69.57,602.05 46.57,107.5 113.79,161.23 202.1,161.23 58.11,0 108.5,-22.57 151.24,-68.26 42.71,-45.69 73.91,-118.24 94.09,-216.63 20.14,-98.9 30.24,-252.64 30.24,-461.19 0,-306.42 -23.04,-512.3 -69.64,-618.17 -46.57,-105.35 -116.14,-158.04 -208.79,-158.04 -95.04,0 -163.22,53.77 -205.45,161.27 -42.27,107.49 -63.36,306.93 -63.36,597.74z"/>
   <path class="fil0" d="M18682.77 11334.3l-2002.04 6238.1c596.96,290.81 1283.74,671.97 1880.29,963.62l121.75 -7201.72zm-969.32 4329.71l-248.03 693.43 -113.11 -84.82 248.03 -693.42 113.11 84.81zm361.94 1136.12l72.39 -254.32c27.35,12.42 49.28,15.12 65.35,7.92 16.32,-7.25 28.74,-21.61 37.3,-43.03 15.32,-38.36 12.65,-79.08 -8,-122.58 -15.45,-31.84 -56.36,-77.85 -122.94,-137.9 10.86,45.33 15.44,86.68 13.69,124.61 -1.52,37.85 -10.27,76.41 -26.07,116.01 -30.77,76.98 -77.45,126.45 -139.98,148.42 -62.68,21.85 -125.64,8.91 -189,-38.57 -43.19,-32.36 -77.26,-75.26 -102.09,-128.95 -24.68,-53.57 -36.81,-110.96 -36.14,-171.81 0.68,-60.82 15.28,-127.04 43.82,-198.6 34.35,-85.97 73.03,-146.35 116.06,-181.65 43.18,-35.18 95.28,-50.23 156.25,-44.73 61.05,5.49 131.54,38.05 211.57,98.02 117.41,88 190.32,185.07 218.98,291.42 28.5,106.1 19.7,216.94 -26.51,332.68 -27.3,68.42 -54.68,117.77 -82.46,148.37 -27.7,30.41 -58.39,50.03 -91.74,59.06 -33.47,8.96 -70.32,7.53 -110.48,-4.37zm-114.9 -657.65c-35.31,-26.47 -67.62,-35.34 -96.95,-26.9 -29.38,8.35 -50.75,29.49 -64.16,63.08 -12.7,31.76 -14.09,64.79 -4.42,99.26 9.63,34.5 32.6,65.27 68.81,92.41 36.42,27.3 68.62,37.37 96.56,30.01 27.86,-7.2 48.43,-27.1 61.33,-59.46 13.45,-33.63 15.2,-68.65 5.49,-104.99 -9.75,-36.18 -31.96,-67.42 -66.66,-93.41z"/>
   <path class="fil0" d="M16321.78 17888.48l-4059.11 4422.93 5919.3 -3437.09c-528.93,-317.76 -1140.1,-629.07 -1860.19,-985.84zm-321.7 1916.75l-469.19 -483.33 136.87 -106.1 306.97 316.25c6.25,-33.56 14.92,-63.33 25.87,-89.51 11.02,-26.19 27.54,-56.04 49.83,-89.43l104.43 107.58c-31.88,50.3 -50.78,95.59 -56.47,135.63 -5.65,40.32 -1.12,81.03 13.57,122.19l-111.88 86.72zm-650.64 303.35l119.24 -120.59c21.25,15.52 39.6,23.8 55.08,24.79 15.72,1.04 29.57,-3.1 41.71,-12.53 21.89,-16.96 28.54,-40.96 19.7,-71.92 -6.29,-22.45 -31.96,-60.77 -77.13,-114.9 -0.68,28.61 -5.73,53.29 -15.36,74.11 -9.71,20.97 -25.59,40.03 -47.92,57.35 -43.5,33.71 -94.96,47.04 -154.22,40.07 -59.54,-7 -111.8,-33.79 -156.89,-80.23 -30.41,-31.32 -50.63,-65.91 -60.66,-103.72 -9.91,-37.69 -8.04,-73.63 5.97,-107.74 14.09,-34.26 41.39,-66.98 81.99,-98.5 48.79,-37.81 95.68,-60.02 140.97,-66.62 45.17,-6.73 93.93,0.87 145.98,22.76 52.06,21.89 106.59,62.05 163.54,120.67 83.22,85.77 125.61,162.86 127.28,231.56 1.67,68.53 -30.29,128.23 -96,179.13 -38.76,30.09 -73.63,49.55 -104.59,58.23 -30.93,8.68 -62.13,10.35 -93.17,5.17 -31.2,-5.29 -63.08,-17.63 -95.52,-37.09zm43.74 -405.08c-25.07,-25.79 -51.3,-40.71 -78.76,-45.05 -27.55,-4.22 -50.83,1.03 -70.13,16 -17.83,13.81 -26.27,32 -25.51,54.48 0.87,22.41 13.97,46.77 39.4,73 25.99,26.78 52.14,42.42 78.17,46.84 26.1,4.38 48.43,-0.52 66.78,-14.73 18.82,-14.6 28.06,-33.79 27.58,-57.23 -0.4,-23.6 -12.97,-48 -37.53,-73.31z"/>
   <path class="fil0" d="M11541.94 22504.47l4392.63 -4820.71 -8893.44 14.84c902.97,999.05 3928.33,4187.67 4500.81,4805.87zm-474.89 -2760.77c-88.08,52.42 -152.59,111.72 -192.63,176.83 -55.12,88.95 -82.9,191.12 -82.9,306.53 0,190.05 79.6,345.7 238.8,466.93 124.33,92.66 288.66,139.22 493.07,139.22 270.8,0 470.51,-57.67 600.02,-173.64 129.51,-115.38 194.02,-261.53 194.02,-436.76 0,-102.69 -25.91,-197.97 -77.73,-286.92 -39.08,-66.19 -99.81,-130.22 -183.15,-192.19 109.25,-58.74 191.15,-137.11 244.88,-233.98 54.13,-97.43 80.99,-204.89 80.99,-322.94 0,-113.82 -23.08,-219.73 -69.68,-318.71 -46.65,-98.98 -103.6,-175.24 -170.98,-228.69 -67.82,-54.01 -152.12,-93.21 -252.41,-118.6 -100.81,-25.39 -208.19,-38.13 -322.62,-38.13 -214.28,0 -377.69,28.62 -491.2,85.25 -113.03,57.15 -198.76,140.81 -257.62,251.46 -58.91,110.64 -88.56,234.02 -88.56,370.61 0,133.41 27.78,246.16 82.86,338.81 55.17,92.66 139.9,164.1 254.84,214.92zm252.89 446.31c0,-78.36 22.12,-141.88 65.94,-190.08 43.78,-48.16 102.21,-72 175.68,-72 64.51,0 117.73,23.84 159.2,71.48 41.87,47.64 62.6,109.05 62.6,184.23 0,78.89 -21.65,142.41 -64.99,191.64 -43.78,49.23 -99.38,73.59 -166.72,73.59 -68.3,0 -124.33,-23.8 -167.2,-72 -42.82,-48.16 -64.51,-110.64 -64.51,-186.86zm-31.09 -978.35c0,-100.57 27.31,-182.12 81.47,-246.16 54.17,-63.56 116.34,-95.32 186.03,-95.32 67.34,0 127.63,32.32 180.84,96.87 53.22,64.6 80.08,146.66 80.08,246.2 0,100.58 -26.86,182.64 -80.51,246.68 -54.17,64.08 -116.38,96.35 -186.98,96.35 -70.17,0 -130.94,-31.2 -182.76,-93.17 -52.26,-61.93 -78.17,-146.1 -78.17,-251.45z"/>
   <path class="fil0" d="M10896.11 22359.17c-1446.55,-1271.28 -3022.37,-3211.79 -4330.7,-4621.33l-1829.87 1066.63c1796.27,1029.3 4364.9,2524.33 6160.57,3554.7zm-3920.85 -2539.06l526.11 -601.45 123.9 140.78 -344.23 393.49c37.85,2.43 71.56,8.08 101.33,16.88 29.77,8.83 63.92,23.44 102.17,44.1l-117.09 133.88c-57.63,-29.21 -109.09,-44.34 -154.31,-45.17 -45.37,-0.8 -90.9,10.07 -136.63,32.56l-101.25 -115.07zm132.1 -454.47c-98.31,112.4 -182.17,173.85 -251.62,184.4 -69.49,10.62 -135.16,-19.23 -196.89,-89.39 -29.69,-33.71 -49.78,-66.43 -60.21,-97.83 -10.59,-31.48 -14.89,-61.93 -13.18,-91.26 1.64,-29.45 6.61,-56.72 14.93,-81.87 8.16,-25.27 20.34,-51.86 36.38,-79.76 30.28,-53.41 66.42,-104.03 108.33,-151.95 93.81,-107.26 176.03,-170.38 246.64,-189.29 70.48,-18.98 138.94,9.08 205.16,84.34 37.14,42.14 60.14,84.21 69.18,126.04 9.07,41.87 7.4,86.41 -4.78,133.77 -8.44,33.79 -26.15,72.99 -53.21,117.49 -27.22,44.53 -60.78,89.62 -100.73,135.31zm-121.19 -138.18c65.78,-75.18 105.86,-132.29 119.99,-171.14 14.13,-38.88 11.82,-68.97 -7.12,-90.46 -12.42,-14.13 -28.26,-20.58 -47.64,-19.31 -19.38,1.36 -42.31,12.34 -68.7,32.64 -26.46,20.46 -63.08,57.35 -109.8,110.8 -68.66,78.49 -109.85,136.83 -123.58,175.24 -13.65,38.33 -10.59,68.73 9.27,91.3 20.34,23.08 46.97,25.87 80.08,8.64 33.15,-17.28 82.34,-63.21 147.5,-137.71z"/>
  </g>
 </g>
</svg>
