<?xml version="1.0" encoding="UTF-8"?>
<!DOCTYPE svg PUBLIC "-//W3C//DTD SVG 1.1//EN" "http://www.w3.org/Graphics/SVG/1.1/DTD/svg11.dtd">
<!-- Creator: CorelDRAW 2019 (64-Bit) -->
<svg xmlns="http://www.w3.org/2000/svg" xml:space="preserve" width="210mm" height="297mm" version="1.1" style="shape-rendering:geometricPrecision; text-rendering:geometricPrecision; image-rendering:optimizeQuality; fill-rule:evenodd; clip-rule:evenodd"
viewBox="0 0 21000 29700"
 xmlns:xlink="http://www.w3.org/1999/xlink"
 xmlns:xodm="http://www.corel.com/coreldraw/odm/2003">
 <defs>
  <style type="text/css">
   <![CDATA[
    .fil0 {fill:black}
   ]]>
  </style>
 </defs>
 <g id="Слой_x0020_1">
  <metadata id="CorelCorpID_0Corel-Layer"/>
  <g id="_1321535695152">
   <path class="fil0" d="M10626.34 6355.16l-8427.63 10596.11 11234.97 4648.3 -2807.34 -15244.41zm-1365.6 10623.69l2276.09 -419.21c47.64,256.15 37.73,507.84 -29.53,753.61 -67.06,246.51 -238.04,554.16 -513.02,922.99 -168.11,226.1 -269.36,392.58 -304.06,500.24 -34.07,107.61 -38.53,204.49 -13.26,290.65 27.34,93.25 81.23,167.4 162.27,222.24 81.07,54.85 168.19,73.35 261.6,56.12 96.55,-17.79 166,-66.58 207.59,-146.3 41.39,-80.4 47.4,-208.31 17.43,-385.94l778.96 -70.64c40.48,245.44 40.52,442.05 0.56,591.22 -40,149.17 -121.79,272.31 -244.93,370.81 -123.82,98.58 -313.5,171.06 -568.93,218.1 -266.9,49.16 -484.08,53.14 -652.79,12.18 -167.92,-40.4 -315.5,-123.5 -441.34,-248.9 -126.68,-126.05 -215.6,-276.25 -266.98,-451.41 -54.44,-185.79 -57.71,-372.8 -10.38,-560.9 47.56,-187.33 170.14,-406.55 368.02,-656.85 117.81,-146.3 195.74,-248.43 233.43,-304.9 37.45,-57.19 79.87,-129.55 127.24,-219.34l-1185.12 218.3 -202.85 -692.07zm-5298.59 -551.94l1802.48 -1867.59 515.64 497.65 -1179.38 1221.97c144.43,17.19 274.38,44.29 390.15,80.91 115.82,36.61 250.03,93.49 401.86,171.45l-401.1 415.59c-228.05,-111.08 -428.36,-173.92 -600.1,-187.69 -172.53,-13.73 -341.87,11.1 -508,74.58l-421.55 -406.87zm5562.54 -4851.44l-1298.54 -575.98 128.83 -790.98 1637.75 -1506.65 620.59 275.26 -346.69 2128.59 322.81 143.2 -121.35 745.01 -322.81 -143.2 -105.59 648.26 -620.59 -275.26 105.59 -648.25zm121.35 -745.05l178.06 -1093.29 -863.81 789.14 685.75 304.15z"/>
   <path class="fil0" d="M11108.07 6435.24l2761.93 14998.25 5560.47 -7338.43 -8322.4 -7659.82zm2242.9 9599.37l1878.62 -281.74c32.08,211.41 17.07,417.65 -44.81,617.41 -61.73,200.35 -210.42,448.1 -446.04,743.13 -144.11,180.85 -231.67,314.7 -263.11,402.1 -30.89,87.32 -37.17,166.68 -18.79,238.04 19.9,77.25 62.09,139.54 127.04,186.78 65,47.16 135.96,64.71 213.05,53.13 79.72,-11.94 137.98,-50.07 174.32,-114.3 36.1,-64.88 44.58,-169.67 24.84,-316.13l640.93 -36.74c26.5,202.46 21.17,363.77 -15.72,485.04 -36.82,121.31 -107.3,220.05 -211.02,297.5 -104.23,77.49 -261.84,131.74 -472.7,163.38 -220.25,33.03 -398.51,30.4 -535.82,-7.84 -136.63,-37.69 -255.43,-109.93 -355.25,-216.23 -100.49,-106.83 -169.31,-232.47 -206.64,-377.58 -39.6,-153.95 -37.17,-307.41 6.77,-460.44 44.09,-152.35 150.68,-328.83 319.83,-528.78 100.65,-116.77 167.31,-198.44 199.79,-243.73 32.32,-45.89 69.09,-104.12 110.36,-176.43l-978.07 146.7 -147.58 -573.27zm4471.92 -1911.18l318.19 -498.37c151.56,108.62 246.48,242.46 284.73,403.13 37.93,160.08 8.92,355.77 -87.36,586.37 -110.68,265.22 -239.79,437.99 -388.24,519.14 -148.3,80.6 -297.62,92.9 -447.39,36.5 -87.64,-32.99 -157.17,-87.12 -208.27,-161.7 -51.14,-74.63 -83.66,-170.19 -96.87,-286.96 -52.26,71.32 -100.1,122.9 -143.36,154.3 -69.97,52.02 -146.66,83.38 -230.04,95.28 -83.86,11.74 -172.77,0.16 -267.1,-35.34 -118.48,-44.61 -219.37,-118.2 -302.47,-221.28 -82.63,-102.89 -129.35,-223.52 -139.46,-362.18 -10.15,-138.58 24.32,-302.64 103.56,-492.52 77.09,-184.75 159.75,-322.37 247.79,-412.56 88.27,-90.58 188.37,-154.3 301.04,-191.83 112.6,-37.1 240.35,-50.39 382.79,-39.49l-160.67 593.85c-123.45,-20.73 -217.3,-16.63 -280.94,13.69 -63.4,29.77 -110.4,80.6 -140.65,153.07 -31.4,75.3 -29.73,148.81 4.53,220.33 34.51,71.13 97.95,124.02 190.84,159 94.33,35.5 177.39,38.85 249.67,10.19 71.79,-28.85 125.32,-84.89 159.91,-167.75 18.35,-44.06 32.95,-109.25 42.9,-194.86l391.99 181.56c-17.59,29.02 -30.01,52.26 -37.33,69.77 -30.45,72.95 -32.24,143 -5.69,209.43 26.54,66.46 71.72,111.91 136.19,136.19 62.05,23.36 119.04,23.44 170.78,0.76 52.34,-23.05 91.98,-66.75 118.68,-130.7 27.66,-66.31 30.09,-127.28 7.21,-184.16 -22.61,-56.15 -81.08,-110.52 -174.96,-162.86zm-3821.99 -3044.66l-1064.16 919.81 -477.24 -527.78 -192.35 -2309.37 508.6 -439.59 1284.21 1420.25 264.59 -228.69 449.5 497.1 -264.59 228.68 391.11 432.51 -508.56 439.62 -391.11 -432.54zm-449.5 -497.1l-659.63 -729.48 97.66 1215.2 561.97 -485.72z"/>
  </g>
 </g>
</svg>
