<?xml version="1.0" encoding="UTF-8"?>
<!DOCTYPE svg PUBLIC "-//W3C//DTD SVG 1.1//EN" "http://www.w3.org/Graphics/SVG/1.1/DTD/svg11.dtd">
<!-- Creator: CorelDRAW 2019 (64-Bit) -->
<svg xmlns="http://www.w3.org/2000/svg" xml:space="preserve" width="210mm" height="297mm" version="1.1" style="shape-rendering:geometricPrecision; text-rendering:geometricPrecision; image-rendering:optimizeQuality; fill-rule:evenodd; clip-rule:evenodd"
viewBox="0 0 21000 29700"
 xmlns:xlink="http://www.w3.org/1999/xlink"
 xmlns:xodm="http://www.corel.com/coreldraw/odm/2003">
 <defs>
  <style type="text/css">
   <![CDATA[
    .fil0 {fill:black}
   ]]>
  </style>
 </defs>
 <g id="Слой_x0020_1">
  <metadata id="CorelCorpID_0Corel-Layer"/>
  <g id="_1320575591632">
   <path class="fil0" d="M4902.55 9184.7l11310.26 61.06 1918.62 -2045.54 -11493.43 67.34 -1735.45 1917.14zm6536.83 -1626.92l1747.99 10.82 -178.62 277.25 -1183.79 -7.33 -183.32 186.5c93.05,-17.51 182.68,-30.68 268.73,-39.16 86.08,-8.55 168.11,-12.69 246.43,-12.22 264.83,1.64 455.83,40.76 572,117.33 116.3,76.3 137.79,171.86 63.84,286.68 -51.86,80.51 -144.27,157.57 -276.72,231.43 -133.13,73.87 -290.02,129.79 -471.39,168.08 -181.49,38.24 -394.01,56.47 -637.15,54.96 -174.72,-1.08 -319.59,-9.83 -434.21,-26.31 -114.74,-16.16 -205.77,-40.35 -272.95,-71.72 -67.58,-31.64 -115.5,-66.94 -144.47,-106.5 -29.09,-39.56 -42.71,-88.71 -41.27,-147.62l769.08 -33.75c-18.46,56.48 -3.58,99.78 43.62,129.51 47.68,29.77 117.37,44.78 208.67,45.37 103.12,0.64 199.44,-17.15 289.7,-53.33 90.83,-36.26 159.36,-90.66 206.17,-163.34 47.95,-74.38 49.03,-128.95 3.98,-163.93 -44.94,-35.02 -123.86,-53.01 -235.58,-53.69 -71,-0.44 -145.31,7.24 -222,23.4 -57.07,11.62 -125.25,32.8 -204.09,63.8l-600.22 -46.6 665.57 -669.63z"/>
   <path class="fil0" d="M15988.9 9800.24l-11227.88 -36.21 3.3 11033.82 11293.71 -13.18 -69.13 -10984.43zm-2756.83 3729.7l-1668.2 183.51c-40.71,-231.87 -111.68,-395.41 -212.93,-490.57 -102.64,-96.59 -228.25,-145.74 -378.29,-147.53 -270.64,-3.23 -482.57,130.3 -635.84,401.89 -111.71,196.41 -198.08,616.1 -257.62,1260.49 202.94,-200.91 409.42,-348.52 620.91,-442.77 212.89,-94.24 456.07,-140.45 732.27,-137.15 537.02,6.41 989.06,203.9 1354.7,591.11 366.99,388.64 546.25,877.38 539.24,1466.29 -4.73,396.8 -102.96,758.9 -294.79,1086.17 -191.79,325.84 -454.15,572.36 -788.47,736.65 -335.75,164.29 -753.17,243.49 -1255.16,237.52 -602.92,-7.2 -1084.1,-115.3 -1446.15,-325.8 -362.14,-209.02 -649.93,-540.59 -861.9,-993.27 -211.97,-452.68 -314.22,-1049.92 -305.38,-1793.09 12.93,-1086.69 250.93,-1879.02 715.47,-2379.73 463.11,-499.33 1099.9,-744.18 1911.77,-734.51 479.55,5.7 857.48,64.88 1133.77,178.98 276.33,114.07 505.77,279.48 686.94,493.36 181.13,215.35 318.2,484.84 409.66,808.45zm-3112.52 2647.1c-3.9,326.76 75.82,582.91 237.68,769.96 163.22,187.06 362.61,281.94 601.01,284.81 220.13,2.63 404.8,-79.32 555.44,-244.45 149.25,-165.05 226.5,-413.8 230.48,-746.08 4.02,-339.33 -70,-599.66 -220.72,-779.55 -152.12,-179.9 -341.76,-271.92 -568.94,-274.62 -232.71,-2.79 -430.07,81.83 -589.15,252.41 -160.51,170.62 -241.98,416.46 -245.8,737.52z"/>
   <path class="fil0" d="M16554.93 9704.8l26.35 10971.26 2030.41 -1803.28 -46.05 -11353.01 -2010.71 2185.03zm1136.91 4985.05l-757.06 390.12 -2.11 -405.64 751.49 -1458.13 361.82 -186.42 5.69 1091.58 188.25 -97.03 1.99 382.07 -188.25 96.99 1.71 332.45 -361.77 186.46 -1.76 -332.45zm-1.99 -382.07l-2.9 -560.66 -396.88 766.7 399.78 -206.04z"/>
  </g>
 </g>
</svg>
