<?xml version="1.0" encoding="UTF-8"?>
<!DOCTYPE svg PUBLIC "-//W3C//DTD SVG 1.1//EN" "http://www.w3.org/Graphics/SVG/1.1/DTD/svg11.dtd">
<!-- Creator: CorelDRAW 2019 (64-Bit) -->
<svg xmlns="http://www.w3.org/2000/svg" xml:space="preserve" width="210mm" height="297mm" version="1.1" style="shape-rendering:geometricPrecision; text-rendering:geometricPrecision; image-rendering:optimizeQuality; fill-rule:evenodd; clip-rule:evenodd"
viewBox="0 0 21000 29700"
 xmlns:xlink="http://www.w3.org/1999/xlink"
 xmlns:xodm="http://www.corel.com/coreldraw/odm/2003">
 <defs>
  <style type="text/css">
   <![CDATA[
    .fil0 {fill:black}
   ]]>
  </style>
 </defs>
 <g id="Слой_x0020_1">
  <metadata id="CorelCorpID_0Corel-Layer"/>
  <g id="_1321469241536">
   <path class="fil0" d="M5082.57 9392.8l96.56 7747.26 6247.96 -10585.84 -6344.52 2838.58zm821.07 3057.28l-149.49 -1783.54c188.57,-134.84 370.06,-219.09 543.34,-252.36 173.81,-33.68 384.86,-1.36 633.17,96.91 152.24,59.9 265.82,84.81 341.44,74.66 75.54,-10.55 145.35,-42.5 209.39,-95.72 69.33,-57.63 126.64,-130.78 171.81,-220.01 45.14,-89.19 64.44,-170.18 58.27,-243.37 -6.33,-75.66 -36.93,-116.81 -91.82,-122.86 -55.36,-5.66 -147.57,36.33 -278.08,127.28l1.51 -637.2c180.34,-124.85 322.62,-197.32 427.89,-218.22 105.23,-20.89 188.81,3.39 251.77,72 62.96,69.05 102.56,203.93 119.32,404.09 17.55,209.14 5.73,392.58 -35.3,551.3 -40.56,157.8 -110.68,314.06 -209.94,467.44 -99.78,154.23 -214.44,285.25 -344.67,393.46 -138.14,114.82 -273.7,186.46 -406.59,215.44 -132.37,28.53 -282.7,4.85 -450.45,-71.44 -97.87,-46.45 -166.48,-75.18 -204.85,-86.49 -38.84,-10.82 -88.31,-20.3 -150.08,-27.58l77.84 928.64 -514.48 427.57z"/>
   <path class="fil0" d="M11968.49 6595.17l-6567.6 11284.8 13059.89 29.25 -6492.29 -11314.05zm-861.78 7210.56c-158.72,-94.44 -275.02,-201.3 -347.17,-318.67 -99.3,-160.32 -149.41,-344.47 -149.41,-552.46 0,-342.55 143.48,-623.1 430.35,-841.6 224.15,-166.96 520.38,-250.94 888.72,-250.94 488.11,0 848.01,104 1081.44,312.99 233.42,207.99 349.72,471.34 349.72,787.19 0,185.11 -46.69,356.84 -140.1,517.16 -70.4,119.24 -179.93,234.69 -330.18,346.33 196.93,105.91 344.63,247.16 441.42,421.76 97.59,175.55 145.99,369.26 145.99,582.03 0,205.16 -41.59,396 -125.65,574.42 -84.02,178.42 -186.74,315.81 -308.09,412.21 -122.26,97.31 -274.18,167.91 -454.99,213.72 -181.64,45.81 -375.19,68.69 -581.43,68.69 -386.21,0 -680.77,-51.5 -885.34,-153.62 -203.73,-103.04 -358.2,-253.8 -464.3,-453.24 -106.11,-199.4 -159.56,-421.72 -159.56,-667.92 0,-240.42 50.07,-443.68 149.37,-610.64 99.3,-167 252.13,-295.79 459.21,-387.41zm455.82 -804.35c0,141.21 39.88,255.72 118.84,342.56 78.97,86.8 184.2,129.74 316.61,129.74 116.29,0 212.21,-42.94 286.91,-128.79 75.54,-85.88 112.87,-196.57 112.87,-332.04 0,-142.21 -39.04,-256.67 -117.13,-345.42 -78.92,-88.76 -179.09,-132.66 -300.48,-132.66 -123.06,0 -224.07,42.95 -301.32,129.79 -77.26,86.84 -116.3,199.44 -116.3,336.82zm-56.04 1763.28c0,181.33 49.28,328.27 146.86,443.73 97.63,114.46 209.67,171.73 335.31,171.73 121.35,0 230.05,-58.19 325.92,-174.6 95.92,-116.41 144.32,-264.31 144.32,-443.68 0,-181.33 -48.4,-329.23 -145.15,-444.64 -97.63,-115.46 -209.67,-173.69 -336.99,-173.69 -126.48,0 -235.97,56.32 -329.34,167.95 -94.2,111.64 -140.93,263.36 -140.93,453.2z"/>
   <path class="fil0" d="M12504.39 6553.82l6200.17 10725.18 18.82 -7829.8 -6218.99 -2895.38zm3565.12 2540.84l-107.38 582.27c-93.01,-74.47 -163.14,-113.99 -210.34,-118.56 -47.84,-4.66 -80.04,15.56 -96.71,61.05 -30.05,82.11 -1.56,197.4 86.08,346.53 63.2,108.1 214.6,292.13 454.79,552.26 -55.28,-137.86 -89.75,-256.79 -103.32,-357.24 -13.37,-100.89 -5.17,-193.03 25.51,-276.84 59.62,-162.86 183.28,-227.86 370.38,-195.1 187.69,32.83 393.77,161.07 618.36,384.22 151.28,150.37 279.32,316.49 384.11,498.33 104.23,181.29 170.62,354.54 197.88,519.07 27.11,164.97 12.94,323.13 -42.78,475.4 -66.95,182.84 -159.52,290.38 -278.6,322.86 -118.48,32.99 -275.97,-2.83 -471.74,-107.5 -195.78,-104.63 -435.09,-297.22 -718.46,-578.81 -414.36,-411.72 -692.12,-782.3 -834.24,-1113.15 -141.69,-329.94 -167.56,-617.77 -77.45,-863.97 53.25,-145.46 116.09,-239.59 189.17,-281.82 73.07,-42.26 160.75,-50.78 261.88,-26.31 101.64,25.08 219.33,84.02 352.86,177.31zm681.37 1951.21c124.53,123.78 231.03,195.42 319.83,215.8 88.95,19.94 146.5,-5.85 172.92,-78.13 24.48,-66.78 12.74,-154.38 -34.34,-262.64 -47.28,-107.89 -134.21,-224.98 -260.93,-350.91 -129.39,-128.59 -236.84,-203.49 -321.7,-224.59 -85.05,-20.73 -140.41,3.15 -165.6,72.04 -25.87,70.6 -14.53,163.06 33.79,276.05 48.19,113.39 133.6,230.72 256.03,352.38z"/>
   <path class="fil0" d="M18170.37 18455.39c-4025.76,185.67 -8503.37,-15.96 -12598.78,-45.57l6611.58 4390.92 5987.2 -4345.35zm-7044.8 617.21c340.53,-9.51 681.37,-18.78 1022.13,-28.53 340.81,-9.8 681.65,-19.07 1022.69,-28.86 3.78,185.9 4.5,371.97 1.04,557.83 -225.31,6.17 -450.93,11.94 -676.2,17.35 -225.1,5.5 -450.73,10.35 -675.83,15.33 -17.55,124.69 -35.19,249.14 -53.02,373.36 89.51,-37.62 178.82,-66.31 267.93,-86.17 89.79,-19.98 178.19,-31.24 266.1,-32.95 148.78,-2.83 283.18,13.37 403.09,48.75 118.93,35.14 222.92,89.19 309.64,163.62 170.63,146.34 241.67,336.34 215.76,568.01 -18.23,162.59 -81.59,319.71 -182.52,472.62 -99.86,151.32 -226.38,268.09 -381.88,349.32 -76.81,40.12 -162.54,70.73 -257.46,90.47 -94.61,19.66 -199.2,28.22 -313.42,28.14 -164.42,-0.08 -305.74,-17.16 -425.3,-47.32 -119.52,-30.13 -224.55,-75.46 -313.74,-135.16 -89.87,-60.14 -165.89,-127.64 -228.21,-203.5 -62.73,-76.37 -120.28,-171.34 -171.82,-286.16 124.93,-16.08 250.1,-32.12 375.87,-47.04 126.17,-15 252.77,-28.97 379.57,-43.34 23.04,111.75 69.81,196.85 137.86,254.87 68.14,58.15 146.78,87.05 237.29,86.49 101.61,-0.64 185.58,-37.65 254.28,-111.04 69.45,-74.19 107.74,-183.52 112.83,-329.34 5.25,-149.33 -27.54,-258.58 -98.38,-326.56 -71.33,-68.45 -169.39,-101.57 -290.54,-99.5 -76.85,1.36 -150.96,18.63 -221.64,52.34 -52.22,24.95 -109.02,68.06 -169.07,131.34 -112.12,-12.1 -225.19,-24.24 -338.02,-36.02 -113.07,-11.82 -226.66,-23.4 -340.53,-34.67 17.64,-221.8 36.54,-444.28 58.79,-666.4 22.29,-222 47.36,-444.76 72.71,-667.28z"/>
  </g>
 </g>
</svg>
